<?xml version="1.0" encoding="UTF-8"?>
<!-- Generator: visioncortex VTracer 0.6.3 -->
<svg version="1.1" xmlns="http://www.w3.org/2000/svg" width="1280" height="640">
<path d="M0 0 C422.4 0 844.8 0 1280 0 C1280 211.2 1280 422.4 1280 640 C857.6 640 435.2 640 0 640 C0 428.8 0 217.6 0 0 Z " fill="#E8F0F9" transform="translate(0,0)"/>
<path d="M0 0 C151.47 0 302.94 0 459 0 C454.11 26.91 440.78 48.53 422 68 C421.28 68.78 420.57 69.56 419.83 70.36 C396.05 95.53 361.74 108.28 327.63 109.28 C309.91 109.52 292.16 106.96 274.59 104.91 C219.16 98.49 183.96 108.24 140.07 143.02 C97.38 176.79 54.04 188.16 0 184 C0 123.28 0 62.56 0 0 Z " fill="#5F8FCB" transform="translate(0,0)"/>
</svg>
